<?xml version="1.0" standalone="no"?><!DOCTYPE svg PUBLIC "-//W3C//DTD SVG 1.1//EN" "http://www.w3.org/Graphics/SVG/1.1/DTD/svg11.dtd"><svg t="1725115760320" class="icon" viewBox="0 0 1024 1024" version="1.1" xmlns="http://www.w3.org/2000/svg" p-id="5095" xmlns:xlink="http://www.w3.org/1999/xlink" width="200" height="200"><path d="M448.726 608.334L74.46 291.376h663.308a151.18 151.18 0 0 0 20.004 55.292L448.726 608.334zM332.588 574.374L31.946 830.584V319.834z" fill="#DFDFDF" p-id="5096"></path><path d="M527.068 606.368l296.464 252.82H74.116L370.58 606.614l62.27 52.688 15.876 13.416 0.048-0.048 15.826-13.368zM865.504 419.064v411.324L565.06 574.226l224.462-190.058a151.548 151.548 0 0 0 75.982 34.896z" fill="#DFDFDF" p-id="5097"></path><path d="M890.08 891.134H7.372A7.372 7.372 0 0 1 0 883.762v-616.96a7.372 7.372 0 0 1 7.372-7.372H760.62a7.37 7.37 0 0 1 7.336 8.092c-0.024 0.25-0.012 0.502-0.012 0.754a120.454 120.454 0 0 0 28.526 77.802c22.972 27.21 56.548 42.81 92.132 42.81 0.254 0.002 0.506 0.014 0.76-0.014a7.4 7.4 0 0 1 5.668 1.876 7.38 7.38 0 0 1 2.42 5.46v487.552a7.368 7.368 0 0 1-7.37 7.372zM14.744 876.39h867.964V403.504c-37.73-1.634-72.996-18.886-97.49-47.904a135.174 135.174 0 0 1-31.886-81.426H14.744v602.216z" fill="#4A555F" p-id="5098"></path><path d="M888.606 403.652c-74.656 0-135.394-60.738-135.394-135.394s60.738-135.394 135.394-135.394S1024 193.602 1024 268.258s-60.738 135.394-135.394 135.394z m0-256.042c-66.526 0-120.65 54.124-120.65 120.65s54.124 120.65 120.65 120.65 120.648-54.124 120.648-120.65-54.122-120.65-120.648-120.65z" fill="#4A555F" p-id="5099"></path><path d="M888.606 268.258m-89.136 0a89.136 89.136 0 1 0 178.272 0 89.136 89.136 0 1 0-178.272 0Z" fill="#FFD452" p-id="5100"></path><path d="M896.57 364.444l-1.2-14.696a81.696 81.696 0 0 0 13.32-2.206l3.61 14.296a96.804 96.804 0 0 1-15.73 2.606z m-15.924 0a96.494 96.494 0 0 1-15.728-2.608l3.61-14.296c4.348 1.098 8.828 1.84 13.32 2.206l-1.202 14.698z m46.736-7.784l-5.928-13.5a81.94 81.94 0 0 0 11.864-6.434l8.072 12.338a96.122 96.122 0 0 1-14.008 7.596z m-77.562-0.004a96.99 96.99 0 0 1-14.018-7.604l8.078-12.336a81.866 81.866 0 0 0 11.872 6.44l-5.932 13.5z m104.146-17.388l-9.988-10.844a82.344 82.344 0 0 0 9.156-9.94l11.63 9.064a97.386 97.386 0 0 1-10.798 11.72z m-130.736-0.016a97.498 97.498 0 0 1-10.792-11.724l11.634-9.06a82.254 82.254 0 0 0 9.15 9.94l-9.992 10.844z m150.264-25.046l-12.964-7.03a81.276 81.276 0 0 0 5.43-12.364l13.948 4.788a96.762 96.762 0 0 1-6.414 14.606z m-169.784-0.014a96.58 96.58 0 0 1-6.408-14.59l13.944-4.79a81.888 81.888 0 0 0 5.428 12.356l-12.964 7.024z m180.102-30.054l-14.548-2.414c0.732-4.41 1.104-8.94 1.104-13.466h14.744a97.29 97.29 0 0 1-1.3 15.88z m-190.414-0.002a97.554 97.554 0 0 1-1.298-15.876 7.372 7.372 0 1 1 14.744 0c0 4.52 0.37 9.052 1.102 13.47l-14.548 2.406z m175.87-29.342a81.39 81.39 0 0 0-3.304-13.088l13.948-4.788a96.312 96.312 0 0 1 3.904 15.464l-14.548 2.412z m-161.32-0.002l-14.548-2.412a95.876 95.876 0 0 1 3.91-15.466l13.944 4.792a80.9 80.9 0 0 0-3.306 13.086z m152.588-25.44a82.076 82.076 0 0 0-7.394-11.3l11.634-9.06a96.972 96.972 0 0 1 8.724 13.336l-12.964 7.024z m-143.854-0.014l-12.96-7.03a96.906 96.906 0 0 1 8.73-13.338l11.63 9.062a82.606 82.606 0 0 0-7.4 11.306z m127.312-21.224a82.506 82.506 0 0 0-10.66-8.31l8.078-12.336a97.422 97.422 0 0 1 12.57 9.798l-9.988 10.848z m-110.754-0.018l-9.988-10.848a97.352 97.352 0 0 1 12.568-9.794l8.078 12.336a82.474 82.474 0 0 0-10.658 8.306z m88.222-14.736a81.522 81.522 0 0 0-12.772-4.384l3.61-14.296a95.79 95.79 0 0 1 15.09 5.18l-5.928 13.5z m-65.702-0.004l-5.928-13.5a95.964 95.964 0 0 1 15.088-5.178l3.604 14.296a81.772 81.772 0 0 0-12.764 4.382z m26.088-6.586l-1.2-14.696a98.396 98.396 0 0 1 15.92 0.002l-1.204 14.694a83.782 83.782 0 0 0-13.516 0zM881.234 216.88h14.744v101.476h-14.744z" fill="#4A555F" p-id="5101"></path><path d="M837.87 260.248h101.476v14.744h-101.476zM448.724 647.898a7.36 7.36 0 0 1-4.764-1.746L2.608 272.428l9.528-11.252 436.588 369.692 337.36-285.646 9.528 11.252-342.124 289.678a7.354 7.354 0 0 1-4.764 1.746z" fill="#4A555F" p-id="5102"></path><path d="M890.246 891.134H7.394a7.374 7.374 0 0 1-4.78-12.984l363.154-309.446a7.37 7.37 0 0 1 9.542-0.016l73.504 62.166 73.542-62.348a7.376 7.376 0 0 1 9.552 0.014l363.12 309.634a7.368 7.368 0 0 1-4.782 12.98z m-862.832-14.744h842.824L527.11 583.806l-73.524 62.332a7.376 7.376 0 0 1-9.53 0.004l-73.492-62.156L27.414 876.39z" fill="#4A555F" p-id="5103"></path></svg>